{
  "accessors": [
    {
      "bufferView": 2,
      "componentType": 5126,
      "count": 1524,
      "max": [
        0.8949379920959473,
        3.413922071456909,
        15.177703857421875
      ],
      "min": [
        -0.8949379920959473,
        -3.4139211177825928,
        0.0
      ],
      "type": "VEC3"
    },
    {
      "bufferView": 2,
      "byteOffset": 18288,
      "componentType": 5126,
      "count": 1524,
      "max": [
        1.0,
        1.0,
        1.0
      ],
      "min": [
        -1.0,
        -1.0,
        -1.0
      ],
      "type": "VEC3"
    },
    {
      "bufferView": 1,
      "componentType": 5126,
      "count": 1524,
      "max": [
        0.9565650224685669,
        0.983040988445282
      ],
      "min": [
        0.01549299992620945,
        0.012353000231087208
      ],
      "type": "VEC2"
    },
    {
      "bufferView": 0,
      "componentType": 5125,
      "count": 8016,
      "type": "SCALAR"
    },
    {
      "bufferView": 2,
      "byteOffset": 36576,
      "componentType": 5126,
      "count": 1756,
      "max": [
        1.0090069770812988,
        3.7015020847320557,
        17.160564422607422
      ],
      "min": [
        -1.0090069770812988,
        -3.7015020847320557,
        15.14255142211914
      ],
      "type": "VEC3"
    },
    {
      "bufferView": 2,
      "byteOffset": 57648,
      "componentType": 5126,
      "count": 1756,
      "max": [
        1.0,
        1.0,
        1.0
      ],
      "min": [
        -1.0,
        -1.0,
        -1.0
      ],
      "type": "VEC3"
    },
    {
      "bufferView": 1,
      "byteOffset": 12192,
      "componentType": 5126,
      "count": 1756,
      "max": [
        1.0,
        1.0
      ],
      "min": [
        0.0,
        0.0
      ],
      "type": "VEC2"
    },
    {
      "bufferView": 0,
      "byteOffset": 32064,
      "componentType": 5125,
      "count": 9120,
      "type": "SCALAR"
    }
  ],
  "asset": {
    "extras": {
      "author": "matisosanimation (https://sketchfab.com/matisosanimation)",
      "license": "CC-BY-4.0 (http://creativecommons.org/licenses/by/4.0/)",
      "source": "https://sketchfab.com/3d-models/street-light-b804017a7ac54fba85a5cf3a571bda96",
      "title": "Street light"
    },
    "generator": "Sketchfab-12.66.0",
    "version": "2.0"
  },
  "bufferViews": [
    {
      "buffer": 0,
      "byteLength": 68544,
      "name": "floatBufferViews",
      "target": 34963
    },
    {
      "buffer": 0,
      "byteLength": 26240,
      "byteOffset": 68544,
      "byteStride": 8,
      "name": "floatBufferViews",
      "target": 34962
    },
    {
      "buffer": 0,
      "byteLength": 78720,
      "byteOffset": 94784,
      "byteStride": 12,
      "name": "floatBufferViews",
      "target": 34962
    }
  ],
  "buffers": [
    {
      "byteLength": 173504,
      "uri": "scene.bin"
    }
  ],
  "materials": [
    {
      "alphaMode": "BLEND",
      "emissiveFactor": [
        1.0,
        1.0,
        0.23047548898624032
      ],
      "name": "blinn1SG",
      "pbrMetallicRoughness": {
        "baseColorFactor": [
          0.9407393292682927,
          0.9407393292682927,
          0.9407393292682927,
          0.33708079268292684
        ],
        "metallicFactor": 0.0,
        "roughnessFactor": 0.2726753048780488
      }
    },
    {
      "doubleSided": true,
      "name": "initialShadingGroup",
      "pbrMetallicRoughness": {
        "baseColorFactor": [
          0.12976371951219512,
          0.12976371951219512,
          0.12976371951219512,
          1.0
        ],
        "metallicFactor": 0.7639100609756098,
        "roughnessFactor": 0.6446265243902439
      }
    }
  ],
  "meshes": [
    {
      "name": "Object_0",
      "primitives": [
        {
          "attributes": {
            "NORMAL": 1,
            "POSITION": 0,
            "TEXCOORD_0": 2
          },
          "indices": 3,
          "material": 1,
          "mode": 4
        }
      ]
    },
    {
      "name": "Object_1",
      "primitives": [
        {
          "attributes": {
            "NORMAL": 5,
            "POSITION": 4,
            "TEXCOORD_0": 6
          },
          "indices": 7,
          "material": 0,
          "mode": 4
        }
      ]
    }
  ],
  "nodes": [
    {
      "children": [
        1
      ],
      "matrix": [
        1.0,
        0.0,
        0.0,
        0.0,
        0.0,
        2.220446049250313e-16,
        -1.0,
        0.0,
        0.0,
        1.0,
        2.220446049250313e-16,
        0.0,
        0.0,
        0.0,
        0.0,
        1.0
      ],
      "name": "Sketchfab_model"
    },
    {
      "children": [
        2,
        3
      ],
      "name": "c11d6cc177d540c1b130afe5623e93d0.obj.cleaner.materialmerger.gles"
    },
    {
      "mesh": 0,
      "name": "Object_2"
    },
    {
      "mesh": 1,
      "name": "Object_3"
    }
  ],
  "scene": 0,
  "scenes": [
    {
      "name": "Sketchfab_Scene",
      "nodes": [
        0
      ]
    }
  ]
}
